<?xml version="1.0" encoding="UTF-8"?>
<svg width="172px" height="22px" viewBox="0 0 172 22" version="1.1" xmlns="http://www.w3.org/2000/svg" xmlns:xlink="http://www.w3.org/1999/xlink">
    <!-- Generator: Sketch 58 (84663) - https://sketch.com -->
    <title>编组备份</title>
    <desc>Created with Sketch.</desc>
    <defs>
        <polygon id="path-1" points="0.336888 0.2106 11.752128 0.2106 11.752128 18.291024 0.336888 18.291024"></polygon>
        <polygon id="path-3" points="0.262548 0.2106 6.203628 0.2106 6.203628 18.291132 0.262548 18.291132"></polygon>
        <polygon id="path-5" points="0.33462 0.2106 40.14054 0.2106 40.14054 21.24 0.33462 21.24"></polygon>
        <polygon id="path-7" points="0 21.0294 171.5922 21.0294 171.5922 0 0 0"></polygon>
    </defs>
    <g id="页面-1" stroke="none" stroke-width="1" fill="none" fill-rule="evenodd">
        <g id="画板" transform="translate(-68.000000, -88.000000)">
            <g id="编组备份" transform="translate(68.000000, 88.000000)">
                <g id="编组" transform="translate(159.840000, 0.149580)">
                    <mask id="mask-2" fill="white">
                        <use xlink:href="#path-1"></use>
                    </mask>
                    <g id="Clip-2"></g>
                    <path d="M11.752128,4.534704 L11.752128,2.772144 L6.887088,2.772144 L6.887088,0.210384 L4.741848,0.210384 L4.741848,2.772144 L0.336888,2.772144 L0.336888,4.534704 L4.741848,4.534704 L4.741848,6.490584 L0.768528,6.490584 L0.768528,8.253144 L9.011448,8.253144 C8.345448,10.110384 7.235928,11.594304 5.981328,12.762144 C4.878288,11.741184 3.869928,10.474704 3.182688,8.903304 L0.979488,8.903304 C1.357128,9.937224 2.334888,12.053304 4.341528,14.081544 C2.873808,15.096744 1.395648,15.753384 0.336888,16.125984 L0.336888,18.291024 C2.675088,17.639064 4.535928,16.649784 6.014448,15.543504 C7.505928,16.667424 9.388008,17.662824 11.752128,18.291024 L11.752128,16.165944 C10.807128,15.834744 9.254088,15.186744 7.674768,14.109264 C10.532808,11.261304 11.320488,8.253504 11.320488,8.253504 L11.320488,6.490584 L6.887088,6.490584 L6.887088,4.534704 L11.752128,4.534704 Z" id="Fill-1" fill="#000000" mask="url(#mask-2)"></path>
                </g>
                <g id="编组" transform="translate(153.360000, 0.149580)">
                    <mask id="mask-4" fill="white">
                        <use xlink:href="#path-3"></use>
                    </mask>
                    <g id="Clip-4"></g>
                    <polygon id="Fill-3" fill="#000000" mask="url(#mask-4)" points="4.305708 0.210492 2.160468 0.210492 2.160468 2.772252 0.262548 2.772252 0.262548 4.534812 2.160468 4.534812 2.160468 9.615852 0.262548 10.044252 0.262548 11.865492 2.160468 11.437092 2.160468 16.023132 1.655388 16.528572 1.656468 16.528572 0.262548 16.528572 0.262548 18.291132 2.594988 18.291132 4.305708 16.580412 4.305708 10.952892 6.203628 10.524492 6.203628 8.703612 4.305708 9.132012 4.305708 4.534812 6.203628 4.534812 6.203628 2.772252 4.305708 2.772252"></polygon>
                </g>
                <polygon id="Fill-5" fill="#000000" points="8.725032 6.314472 2.785032 0.374472 7.2e-05 0.374472 7.2e-05 18.454752 3.766752 18.454752 3.766752 6.682752 8.725032 11.641392 13.683672 6.682752 13.683672 18.454752 17.449992 18.454752 17.449992 0.374472 14.665032 0.374472"></polygon>
                <g id="编组" transform="translate(20.520000, 0.149580)">
                    <mask id="mask-6" fill="white">
                        <use xlink:href="#path-5"></use>
                    </mask>
                    <g id="Clip-8"></g>
                    <polygon id="Fill-7" fill="#000000" mask="url(#mask-6)" points="26.62218 0.210492 12.2931 14.538852 7.19478 14.538852 4.1013 11.445372 4.1013 7.070292 7.19478 3.977172 12.2931 3.977172 16.51734 8.201052 19.18062 5.537412 13.85334 0.210492 5.63454 0.210492 0.33462 5.510412 0.33462 13.005612 5.63454 18.305172 13.85334 18.305172 28.18242 3.977172 33.28074 3.977172 36.37422 7.070292 36.37422 11.445372 33.28074 14.538852 28.18242 14.538852 23.84982 10.206252 21.18654 12.869532 26.62218 18.305172 29.52954 18.305172 32.46462 21.240252 37.79118 21.240252 34.84854 18.297612 40.14054 13.005612 40.14054 5.510412 34.84098 0.210492"></polygon>
                </g>
                <mask id="mask-8" fill="white">
                    <use xlink:href="#path-7"></use>
                </mask>
                <g id="Clip-10"></g>
                <polygon id="Fill-9" fill="#000000" mask="url(#mask-8)" points="64.0656 18.45486 67.83192 18.45486 67.83192 0.37458 64.0656 0.37458"></polygon>
                <path d="M93.80682,4.42044 L91.2789,4.42044 L91.2789,1.73916 L93.27078,1.73916 L95.9985,1.73916 L95.9985,4.42044 L93.80682,4.42044 Z M102.86334,1.73916 L102.86334,3.91536 L102.35826,4.42044 L100.20438,4.42044 L98.14374,4.42044 L98.14374,1.73916 L100.74042,1.73916 L102.86334,1.73916 Z M106.21818,9.43776 L98.14374,9.43776 L98.14374,8.30808 L105.00858,8.30808 L105.00858,6.92892 L98.14374,6.92892 L98.14374,5.7996 L103.68702,5.7996 L105.00858,4.47804 L105.00858,0.36 L102.86334,0.36 L91.2789,0.36 L89.13366,0.36 L89.13366,1.73916 L89.13366,4.42044 L89.13366,5.3694 L89.13366,5.7996 L95.9985,5.7996 L95.9985,6.92892 L89.13366,6.92892 L89.13366,8.30808 L95.9985,8.30808 L95.9985,9.43776 L87.9237,9.43776 L87.9237,10.81656 L106.21818,10.81656 L106.21818,9.43776 Z" id="Fill-11" fill="#000000" mask="url(#mask-8)"></path>
                <polygon id="Fill-12" fill="#000000" mask="url(#mask-8)" points="98.143704 15.611364 105.008544 15.611364 105.008544 14.232204 98.143704 14.232204 98.143704 13.039884 95.998464 13.039884 95.998464 14.232204 89.133624 14.232204 89.133624 15.611364 95.998464 15.611364 95.998464 17.061444 87.846984 17.061444 87.846984 18.440604 106.294824 18.440604 106.294824 17.061444 98.143704 17.061444"></polygon>
                <path d="M93.270708,1.739088 L92.044908,2.658528 C92.044908,2.658528 93.170988,3.599568 93.806748,4.420368 L95.109228,3.424608 C95.109228,3.424608 93.662388,2.019888 93.270708,1.739088" id="Fill-13" fill="#000000" mask="url(#mask-8)"></path>
                <path d="M98.978328,3.501108 L100.204128,4.420548 C100.595808,4.139748 102.043008,2.735028 102.043008,2.735028 L100.740528,1.738908 C100.104408,2.560068 98.978328,3.501108 98.978328,3.501108" id="Fill-14" fill="#000000" mask="url(#mask-8)"></path>
                <polygon id="Fill-15" fill="#000000" mask="url(#mask-8)" points="90.623088 11.179944 88.636248 11.179944 87.923808 12.727584 89.910648 12.727584"></polygon>
                <polygon id="Fill-16" fill="#000000" mask="url(#mask-8)" points="104.231376 12.727692 106.218216 12.727692 105.505776 11.180052 103.518936 11.180052"></polygon>
                <polygon id="Fill-17" fill="#000000" mask="url(#mask-8)" points="99.121752 12.727692 101.108592 12.727692 100.395792 11.180052 98.409312 11.180052"></polygon>
                <polygon id="Fill-18" fill="#000000" mask="url(#mask-8)" points="94.011804 12.727692 95.998644 12.727692 95.285844 11.180052 93.299364 11.180052"></polygon>
                <path d="M126.580176,6.029352 L119.386296,3.801312 C119.457216,3.708432 119.523096,3.613032 119.585736,3.515472 L127.001376,3.515472 L127.001376,1.753272 L119.943936,1.753272 L119.943936,0.360072 L117.769176,0.360072 L117.769176,1.753272 L110.452896,1.753272 L110.452896,3.515472 L116.993376,3.515472 C116.059176,4.290192 114.129576,5.406192 110.414736,5.952672 L111.257496,7.561512 C111.257496,7.561512 115.126416,6.994152 117.773496,5.250312 L124.996176,7.605792 L109.503216,7.605792 L109.503216,9.368352 L123.289776,9.368352 L123.289776,16.174512 L123.289056,16.174152 L122.785416,16.678152 L121.014216,16.678152 L121.014216,18.440712 L123.725376,18.440712 L125.434656,16.731072 L125.434656,9.368352 L127.951056,9.368352 L127.951056,7.605792 L125.692056,7.605792 L126.580176,6.029352 Z" id="Fill-19" fill="#000000" mask="url(#mask-8)"></path>
                <path d="M118.056564,14.704524 L113.709204,14.704524 L113.709204,12.081924 L118.559124,12.081924 L118.559124,14.201964 L118.056564,14.704524 Z M118.559124,10.702764 L113.709204,10.702764 L113.053644,10.702764 L111.563964,10.702764 L111.563964,16.083684 L113.053644,16.083684 L113.709204,16.083684 L119.385324,16.083684 L120.704004,14.764644 L120.704004,10.702764 L118.559124,10.702764 Z" id="Fill-20" fill="#000000" mask="url(#mask-8)"></path>
                <polygon id="Fill-21" fill="#000000" mask="url(#mask-8)" points="147.642984 0.360072 145.497744 0.360072 145.497744 11.237112 138.725424 12.266352 138.725424 14.191272 145.497744 13.162032 145.497744 18.440712 147.642984 18.440712 147.642984 12.835872 150.217344 12.444552 150.217344 10.519632 147.642984 10.910952"></polygon>
                <path d="M139.665708,10.577016 C138.961188,9.967536 137.269908,8.579376 137.269908,8.579376 L136.695348,9.302616 L136.695348,7.638336 L139.108428,7.638336 L139.108428,5.876136 L136.695348,5.876136 L136.695348,2.718576 C137.842308,2.570616 138.749508,2.429136 139.283388,2.340216 L138.831948,0.665136 C137.621988,0.860616 134.934948,1.255176 131.919948,1.454616 L132.200028,3.166056 C133.019748,3.109896 133.808868,3.040416 134.550108,2.965536 L134.550108,5.876136 L131.753628,5.876136 L131.753628,7.638336 L134.081748,7.638336 C133.973388,8.262576 133.488828,10.152216 131.355828,13.132296 L132.290028,15.452856 C132.290028,15.452856 133.442748,14.017536 134.550108,11.754216 L134.550108,18.440856 L136.695348,18.440856 L136.695348,10.768176 L138.342348,12.180096 L139.665708,10.577016 Z" id="Fill-22" fill="#000000" mask="url(#mask-8)"></path>
                <path d="M144.963756,4.448196 C143.884476,3.306636 141.560316,1.486836 141.560316,1.486836 L140.257836,3.018996 C141.790356,4.194036 143.552196,5.930316 143.552196,5.930316 L144.963756,4.448196 Z" id="Fill-23" fill="#000000" mask="url(#mask-8)"></path>
                <path d="M144.164988,8.94258 C143.085708,7.80102 140.761548,5.98122 140.761548,5.98122 L139.459068,7.51338 C140.991588,8.68842 142.753428,10.4247 142.753428,10.4247 L144.164988,8.94258 Z" id="Fill-24" fill="#000000" mask="url(#mask-8)"></path>
                <polygon id="Fill-25" fill="#000000" mask="url(#mask-8)" points="78 20.09468 78.54684 20.09468 78.54684 2 78 2"></polygon>
            </g>
        </g>
    </g>
</svg>