<?xml version="1.0" encoding="UTF-8"?>
<svg width="54px" height="54px" viewBox="0 0 54 54" version="1.1" xmlns="http://www.w3.org/2000/svg" xmlns:xlink="http://www.w3.org/1999/xlink">
    <!-- Generator: Sketch 58 (84663) - https://sketch.com -->
    <title>编组 2</title>
    <desc>Created with Sketch.</desc>
    <defs>
        <circle id="path-1" cx="33.75" cy="33.75" r="33.75"></circle>
    </defs>
    <g id="页面-1" stroke="none" stroke-width="1" fill="none" fill-rule="evenodd">
        <g id="编组-3" transform="translate(-6.000000, -6.250000)">
            <g id="编组-2">
                <path d="M6,6.25 L58,6.25 C59.1045695,6.25 60,7.1454305 60,8.25 L60,58.25 C60,59.3545695 59.1045695,60.25 58,60.25 L6,60.25 L6,60.25 L6,6.25 Z" id="矩形" fill="#2365EB" transform="translate(33.000000, 33.250000) rotate(-270.000000) translate(-33.000000, -33.250000) "></path>
                <mask id="mask-2" fill="white">
                    <use xlink:href="#path-1"></use>
                </mask>
                <g id="蒙版"></g>
                <path d="M42.018593,43.9269226 C42.018593,44.5960326 41.4738801,45.1384611 40.8019207,45.1384611 C40.1299612,45.1384611 39.5852103,44.5960326 39.5852103,43.9269226 L39.5852103,38.8384612 C39.5852103,35.0913999 36.534788,32.0538459 32.771815,32.0538459 C29.0088799,32.0538459 25.9584196,35.0913999 25.9584196,38.8384612 L25.9584196,43.1999996 C25.9584196,43.8691095 25.4136687,44.411538 24.7417093,44.411538 C24.0697498,44.411538 23.5250369,43.8691095 23.5250369,43.1999996 L23.5250369,38.8384612 C23.5250369,33.75318 27.664961,29.630769 32.771815,29.630769 C37.8786689,29.630769 42.018593,33.75318 42.018593,38.8384612 L42.018593,43.9269226 Z M47.7169461,24.96256 C48.1477907,25.4760251 48.0790745,26.2400894 47.5633988,26.6690876 C47.0477611,27.0981236 46.2804807,27.0296717 45.8496361,26.5162066 C42.631604,22.6810816 37.8879806,20.4230769 32.771815,20.4230769 C27.8834999,20.4230769 23.3311645,22.483033 20.1201256,26.0275401 C19.6700116,26.5243466 18.9006788,26.5637973 18.4017261,26.1156038 C17.9028114,25.6674103 17.8631703,24.9013394 18.3132843,24.4044951 C21.9810884,20.3558744 27.1873301,18 32.771815,18 C38.6168362,18 44.0413886,20.582167 47.7169461,24.96256 Z M47.1286395,38.1115381 C47.1286395,38.7806481 46.5839267,39.3230765 45.9119672,39.3230765 C45.2400077,39.3230765 44.6952949,38.7806481 44.6952949,38.1115381 C44.6952949,33.1814474 41.6498134,28.8180918 37.1163674,27.0509494 C36.4906621,26.8070137 36.1819713,26.1041699 36.4269248,25.4810984 C36.6718784,24.8580269 37.3776639,24.5506748 38.0034071,24.7945726 C43.4619376,26.922337 47.1286395,32.175757 47.1286395,38.1115381 Z M32.771815,23.8153845 C33.4437744,23.8153845 33.9884873,24.357813 33.9884873,25.026923 C33.9884873,25.6960329 33.4437744,26.2384614 32.771815,26.2384614 C26.1866502,26.2384614 20.848335,31.5542377 20.848335,38.1115381 C20.848335,38.7806481 20.3036222,39.3230765 19.6316627,39.3230765 C18.9597033,39.3230765 18.4149904,38.7806481 18.4149904,38.1115381 C18.4149904,30.21598 24.8427692,23.8153845 32.771815,23.8153845 L32.771815,23.8153845 Z M32.771815,37.8692304 C32.2409366,37.8692304 31.8093318,38.2924359 31.7986899,38.8185465 C31.8004763,38.863222 31.8030227,38.9289858 31.8060633,39.0135285 C31.8124484,39.1904509 31.8188335,39.3872881 31.8248006,39.5990423 C31.8416376,40.1967851 31.8518234,40.7944521 31.8520894,41.3547887 C31.8524695,42.1076841 31.8348724,42.7362832 31.7940531,43.2125314 C31.658141,44.7979052 31.2208352,46.1812928 30.5738082,47.3581509 C30.291532,47.8715403 29.9864517,48.3135626 29.6771528,48.6853913 C29.4808479,48.9214141 29.3173808,49.0891365 29.2045387,49.189997 C28.7045218,49.636979 27.9352651,49.595711 27.4864053,49.0978065 C27.0375074,48.5999021 27.0789728,47.8339069 27.5789897,47.3868871 C27.5759492,47.3896131 27.5884914,47.3776491 27.61445,47.3509953 C27.6687997,47.2952645 27.732385,47.224806 27.8031536,47.1397711 C28.0164475,46.8833414 28.2339222,46.5682279 28.4393867,46.194544 C28.9283816,45.3051612 29.2632972,44.2456708 29.3695261,43.0064563 C29.403162,42.6137664 29.4190489,42.0453656 29.4187448,41.3559245 C29.4184788,40.8204245 29.408635,40.2440729 29.3924061,39.6669263 C29.3866291,39.4618734 29.380434,39.2714347 29.3742769,39.1006835 C29.3705902,38.9988386 29.3677397,38.9267142 29.3661815,38.8892701 L29.3651173,38.8384612 C29.3651173,36.9649306 30.8903284,35.4461535 32.771815,35.4461535 C34.6533015,35.4461535 36.1785127,36.9649306 36.1785127,38.8384612 L36.1785127,45.314702 C36.1785127,45.983812 35.6337998,46.5262405 34.9618403,46.5262405 C34.2898809,46.5262405 33.745168,45.983812 33.745168,45.314702 L33.745168,38.8384612 C33.745168,38.3031883 33.3093825,37.8692304 32.771815,37.8692304 Z" id="形状" fill="#FFFFFF" fill-rule="nonzero" mask="url(#mask-2)"></path>
            </g>
        </g>
    </g>
</svg>